<?xml version="1.0" encoding="utf-8"?>
<!-- Generator: Adobe Illustrator 18.1.1, SVG Export Plug-In . SVG Version: 6.00 Build 0)  -->
<!DOCTYPE svg PUBLIC "-//W3C//DTD SVG 1.1//EN" "http://www.w3.org/Graphics/SVG/1.1/DTD/svg11.dtd">
<svg version="1.1" id="Fullscreen_alt" xmlns="http://www.w3.org/2000/svg" xmlns:xlink="http://www.w3.org/1999/xlink" x="0px"
	 y="0px" viewBox="0 0 512 512" enable-background="new 0 0 512 512" xml:space="preserve">
<path display="none" d="M182.4,280.9L92,371.2L36,315.1v159.7h159.7L138.8,418l90.3-90.4L182.4,280.9z M311.8,38.5l56.9,56.9
	l-90.3,90.3l46.8,46.8l90.3-90.3l56.1,56.1V38.5H311.8z"/>
<g id="Pencil_1_x2C__Edit_1" display="none">
	<path display="inline" fill-rule="evenodd" clip-rule="evenodd" d="M460.6,69.7L441,50.1c-13.1-13.1-34.3-13.1-47.4,0L358.7,85
		l67,67l34.9-34.9C473.7,104.1,473.7,82.9,460.6,69.7z"/>
	
		<rect x="203.4" y="107.3" transform="matrix(-0.7071 -0.7071 0.7071 -0.7071 244.3553 621.0817)" display="inline" fill-rule="evenodd" clip-rule="evenodd" width="94.8" height="305.2"/>
	<path display="inline" fill-rule="evenodd" clip-rule="evenodd" d="M38.2,463.7c-3.2,8,0.8,12,8.8,8.8l96.2-38l-67-67L38.2,463.7z"
		/>
</g>
<path d="M465.3,194.8L316.5,46c-6.8-6.8-17.8-6.8-24.6,0s-6.8,17.8,0,24.6l61.9,61.9L42.4,444c-6.8,6.8-6.8,17.8,0,24.6
	c6.8,6.8,17.8,6.8,24.6,0l311.4-311.4l62.2,62.2c6.8,6.8,17.8,6.8,24.6,0S472.1,201.6,465.3,194.8z"/>
</svg>
