<?xml version="1.0" encoding="utf-8"?>
<!-- Generator: Adobe Illustrator 18.1.1, SVG Export Plug-In . SVG Version: 6.00 Build 0)  -->
<!DOCTYPE svg PUBLIC "-//W3C//DTD SVG 1.1//EN" "http://www.w3.org/Graphics/SVG/1.1/DTD/svg11.dtd">
<svg version="1.1" id="Sound_medium" xmlns="http://www.w3.org/2000/svg" xmlns:xlink="http://www.w3.org/1999/xlink" x="0px"
	 y="0px" viewBox="0 0 512 512" enable-background="new 0 0 512 512" xml:space="preserve">
<path display="none" d="M84,199.6v113.1h50.8L248.4,397V115.3l-113.6,84.3H84z M308.1,152.6c-6.7-6.7-17.5-6.7-24.2,0
	s-6.7,17.5,0,24.2l0,0c21.9,22,32.9,50.6,32.9,79.3c0,28.8-10.9,57.5-32.9,79.5c-6.7,6.7-6.7,17.5,0,24.2c3.3,3.3,7.7,5,12.1,5
	s8.7-1.7,12.1-5c28.6-28.6,42.9-66.2,42.9-103.6C351,218.7,336.6,181.1,308.1,152.6z M362,98.5c-6.7-6.7-17.5-6.7-24.2,0
	s-6.7,17.5,0,24.2l0,0c36.8,36.9,55.3,85,55.3,133.2c0,48.5-18.3,96.8-55.3,133.8c-6.7,6.7-6.7,17.5,0,24.2c3.3,3.3,7.7,5,12.1,5
	s8.7-1.7,12.1-5c43.6-43.6,65.3-100.9,65.3-157.9C427.3,198.9,405.4,141.9,362,98.5z"/>
<g id="painter14.psd">
	<defs>
		<rect id="SVGID_1_" x="92.7" y="93" width="326" height="326"/>
	</defs>
	<clipPath id="SVGID_2_">
		<use xlink:href="#SVGID_1_"  overflow="visible"/>
	</clipPath>
	<g id="Forma_1" clip-path="url(#SVGID_2_)">
		<g>
			<path d="M255.7,93c-90.5,0-163,72.4-163,163s72.4,163,163,163c14.5,0,27.2-12.7,27.2-27.2c0-7.2-1.8-12.7-7.2-18.1
				c-3.6-5.4-7.2-10.9-7.2-18.1c0-14.5,12.7-27.2,27.2-27.2h32.6c50.7,0,90.5-39.8,90.5-90.5C418.7,158.2,346.2,93,255.7,93z
				 M156.1,256c-14.5,0-27.2-12.7-27.2-27.2c0-14.5,12.7-27.2,27.2-27.2c14.5,0,27.2,12.7,27.2,27.2
				C183.2,243.3,170.6,256,156.1,256z M210.4,183.5c-14.5,0-27.2-12.7-27.2-27.2s12.7-27.2,27.2-27.2c14.5,0,27.2,12.7,27.2,27.2
				S224.9,183.5,210.4,183.5z M300.9,183.5c-14.5,0-27.2-12.7-27.2-27.2s12.7-27.2,27.2-27.2c14.5,0,27.2,12.7,27.2,27.2
				S315.4,183.5,300.9,183.5z M355.3,256c-14.5,0-27.2-12.7-27.2-27.2c0-14.5,12.7-27.2,27.2-27.2s27.2,12.7,27.2,27.2
				C382.4,243.3,369.8,256,355.3,256z"/>
		</g>
	</g>
</g>
</svg>
