<?xml version="1.0" encoding="utf-8"?>
<!-- Generator: Adobe Illustrator 18.1.1, SVG Export Plug-In . SVG Version: 6.00 Build 0)  -->
<!DOCTYPE svg PUBLIC "-//W3C//DTD SVG 1.1//EN" "http://www.w3.org/Graphics/SVG/1.1/DTD/svg11.dtd">
<svg version="1.1" id="Sound_medium" xmlns="http://www.w3.org/2000/svg" xmlns:xlink="http://www.w3.org/1999/xlink" x="0px"
	 y="0px" viewBox="0 0 512 512" enable-background="new 0 0 512 512" xml:space="preserve">
<path display="none" d="M84,199.6v113.1h50.8L248.4,397V115.3l-113.6,84.3H84z M308.1,152.6c-6.7-6.7-17.5-6.7-24.2,0
	s-6.7,17.5,0,24.2l0,0c21.9,22,32.9,50.6,32.9,79.3c0,28.8-10.9,57.5-32.9,79.5c-6.7,6.7-6.7,17.5,0,24.2c3.3,3.3,7.7,5,12.1,5
	s8.7-1.7,12.1-5c28.6-28.6,42.9-66.2,42.9-103.6C351,218.7,336.6,181.1,308.1,152.6z M362,98.5c-6.7-6.7-17.5-6.7-24.2,0
	s-6.7,17.5,0,24.2l0,0c36.8,36.9,55.3,85,55.3,133.2c0,48.5-18.3,96.8-55.3,133.8c-6.7,6.7-6.7,17.5,0,24.2c3.3,3.3,7.7,5,12.1,5
	s8.7-1.7,12.1-5c43.6-43.6,65.3-100.9,65.3-157.9C427.3,198.9,405.4,141.9,362,98.5z"/>
<g id="painter14.psd" display="none">
	<g display="inline">
		<g>
			<defs>
				<rect id="SVGID_1_" x="89.2" y="93" width="326" height="326"/>
			</defs>
			<clipPath id="SVGID_2_">
				<use xlink:href="#SVGID_1_"  overflow="visible"/>
			</clipPath>
			<g id="Forma_1" clip-path="url(#SVGID_2_)">
				<g>
					<path d="M252.2,93c-90.5,0-163,72.4-163,163s72.4,163,163,163c14.5,0,27.2-12.7,27.2-27.2c0-7.2-1.8-12.7-7.2-18.1
						c-3.6-5.4-7.2-10.9-7.2-18.1c0-14.5,12.7-27.2,27.2-27.2h32.6c50.7,0,90.5-39.8,90.5-90.5C415.2,158.2,342.7,93,252.2,93z
						 M152.6,256c-14.5,0-27.2-12.7-27.2-27.2s12.7-27.2,27.2-27.2s27.2,12.7,27.2,27.2S167.1,256,152.6,256z M206.9,183.5
						c-14.5,0-27.2-12.7-27.2-27.2s12.7-27.2,27.2-27.2s27.2,12.7,27.2,27.2S221.4,183.5,206.9,183.5z M297.5,183.5
						c-14.5,0-27.2-12.7-27.2-27.2s12.7-27.2,27.2-27.2s27.2,12.7,27.2,27.2S312,183.5,297.5,183.5z M351.8,256
						c-14.5,0-27.2-12.7-27.2-27.2s12.7-27.2,27.2-27.2s27.2,12.7,27.2,27.2S366.3,256,351.8,256z"/>
				</g>
			</g>
		</g>
	</g>
</g>
<g id="repeat.psd" display="none">
	<g display="inline">
		<g>
			<defs>
				<rect id="SVGID_3_" x="89.2" y="93" width="326" height="326"/>
			</defs>
			<clipPath id="SVGID_4_">
				<use xlink:href="#SVGID_3_"  overflow="visible"/>
			</clipPath>
			<g id="fa-repeat" clip-path="url(#SVGID_4_)">
				<g>
					<path d="M255.1,99c-39.4,0-77.6,15.8-105.8,42.4l-26-25.8c-3.6-3.8-9.2-4.8-14-2.8c-4.6,2-7.8,6.6-7.8,11.8v89.5
						c0,7,5.8,12.8,12.8,12.8h89.6c5.2,0,9.8-3.2,11.8-8c2-4.6,1-10.2-2.8-13.8l-27.6-27.6c18.8-17.4,43.6-27.4,69.8-27.4
						c56.4,0,102.4,46,102.4,102.3s-46,102.3-102.4,102.3c-31.8,0-61.2-14.4-80.8-39.8c-1-1.4-2.8-2.2-4.6-2.4c-1.8,0-3.6,0.6-5,1.8
						l-27.4,27.6c-2.4,2.2-2.4,6-0.4,8.6c29.2,35.2,72.4,55.3,118.2,55.3c84.6,0,153.6-68.9,153.6-153.5S339.7,99,255.1,99z"/>
				</g>
			</g>
		</g>
	</g>
</g>
<g display="none">
	<path display="inline" stroke="#000000" stroke-width="4" stroke-miterlimit="10" d="M363.3,149.1l6.5,53.2
		c0.6,4.3,4.5,7.5,8.8,7.2l15.7-1.3c4.3-0.3,7.4-4.1,6.8-8.4l-12.1-99c-0.6-4.3-4.5-7.5-8.9-7.2l-98.6,8.6c-4.4,0.3-7.4,4.1-6.8,8.4
		l2,15.6c0.5,4.3,4.5,7.5,8.8,7.2l53.3-4.7L207.7,278.5c-9.8-4.8-20.8-7.5-32.4-7.5c-40.6,0-73.5,32.9-73.5,73.5
		s32.9,73.5,73.5,73.5s73.5-32.9,73.5-73.5c0-17.5-6.1-33.5-16.3-46.1L363.3,149.1z"/>
	<path display="inline" stroke="#000000" stroke-width="4" stroke-miterlimit="10" d="M132.1,196.4l7.9,7.9c2.2,2.2,5.7,2.2,7.9,0
		l27.5-27.5l27.5,27.5c2.2,2.2,5.7,2.2,7.9,0l7.9-7.9c2.2-2.2,2.2-5.7,0-7.9L191,161l27.5-27.5c2.2-2.2,2.2-5.7,0-7.9l-7.9-7.9
		c-2.2-2.2-5.7-2.2-7.9,0l-27.5,27.5l-27.5-27.5c-2.2-2.2-5.7-2.2-7.9,0l-7.9,7.9c-2.2,2.2-2.2,5.7,0,7.9l27.5,27.5l-27.5,27.5
		C129.9,190.7,129.9,194.2,132.1,196.4z"/>
	<path display="inline" stroke="#000000" stroke-width="4" stroke-miterlimit="10" d="M373.3,343.3l27.5-27.5c2.2-2.2,2.2-5.7,0-7.9
		l-7.9-7.9c-2.2-2.2-5.7-2.2-7.9,0l-27.5,27.5L330,300c-2.2-2.2-5.7-2.2-7.9,0l-7.9,7.9c-2.2,2.2-2.2,5.7,0,7.9l27.5,27.5
		l-27.5,27.5c-2.2,2.2-2.2,5.7,0,7.9l7.9,7.9c2.2,2.2,5.7,2.2,7.9,0l27.5-27.5l27.5,27.5c2.2,2.2,5.7,2.2,7.9,0l7.9-7.9
		c2.2-2.2,2.2-5.7,0-7.9L373.3,343.3z"/>
</g>
<path d="M280.6,259.4c0,7.7,0,15.3,0,23c0,2.3-1.4,4.1-3.6,4.5c-1.6,0.3-3.1-0.1-4.3-1.3c-1.1-1.1-2.2-2.1-3.2-3.2
	c-14.3-14.2-28.6-28.4-42.9-42.7c-1.4-1.4-1.8-3.1-1.2-4.9c0.6-1.9,2.4-3.1,4.4-3.1c3,0,6.1,0,9.1,0c12.4,0,24.7,0,37.1,0
	c2.4,0,4.2,1.5,4.7,3.8c0.1,0.4,0.1,0.7,0.1,1.1C280.6,244.3,280.6,251.8,280.6,259.4z"/>
</svg>
