<?xml version="1.0" encoding="utf-8"?>
<!-- Generator: Adobe Illustrator 15.0.2, SVG Export Plug-In . SVG Version: 6.00 Build 0)  -->
<!DOCTYPE svg PUBLIC "-//W3C//DTD SVG 1.1//EN" "http://www.w3.org/Graphics/SVG/1.1/DTD/svg11.dtd">
<svg version="1.1" id="International_Courts" xmlns="http://www.w3.org/2000/svg" xmlns:xlink="http://www.w3.org/1999/xlink"
	 x="0px" y="0px" width="745px" height="530px" viewBox="0 0 745 530" enable-background="new 0 0 745 530" xml:space="preserve">
<rect fill="#D3BF94" width="745" height="530"/>
<g>
	<g>
		<rect x="370.951" fill="#FFFFFF" width="4" height="530"/>
	</g>
	<g>
		<rect x="267.341" y="510" fill="#FFFFFF" width="4" height="20"/>
	</g>
	<g>
		<rect x="473.659" y="510" fill="#FFFFFF" width="4" height="20"/>
	</g>
	<g>
		<rect x="267.451" fill="#FFFFFF" width="4" height="20"/>
	</g>
	<g>
		<rect x="473.659" fill="#FFFFFF" width="4" height="20"/>
	</g>
</g>
<g>
	<g>
		<path fill="#FFFFFF" d="M0,496v-4c36.439,0,72.083-10.293,108.968-31.469C180.997,419.18,224,346.084,224,265
			S180.997,110.82,108.968,69.467C72.083,48.293,36.439,38,0,38v-4c37.157,0,73.452,10.467,110.96,31.998
			c34.812,19.986,64.007,48.35,84.427,82.023C216.723,183.203,228,223.654,228,265s-11.277,81.795-32.613,116.979
			c-20.421,33.674-49.615,62.037-84.427,82.021C73.452,485.533,37.157,496,0,496z"/>
	</g>
	<path fill="#FFFFFF" d="M16.693,256.504c-2.703,0-4.693,1.271-6.693,3.244v-12.246c0-1.105-0.896-2-2-2s-2,0.895-2,2v35
		c0,1.104,0.896,2,2,2s2-0.896,2-2v-12.246c2,1.973,3.99,3.246,6.693,3.246c4.688,0,8.5-3.814,8.5-8.5
		S21.381,256.504,16.693,256.504z M16.721,271.502c-3.584,0-6.499-2.916-6.499-6.5s2.915-6.498,6.499-6.498s6.5,2.914,6.5,6.498
		S20.305,271.502,16.721,271.502z"/>
	<path fill="#FFFFFF" d="M220.939,265.002c0-31.693-25.556-57.516-57.142-57.979L139,202.799V196.5h-4v5.625l-26-4.453V191.5h-4v5.5
		l-25-4.367V185.5h-4v6.459l-26-4.447v-6.74l-10-1.186v6.338l-40-6.902v4.047l149.403,25.545
		c-25.472,6.115-44.464,29.068-44.464,56.389c0,27.322,18.997,50.279,44.473,56.391L0,346.957v4.064l40-6.91v5.848l10-1.188v-6.25
		l26-4.453v4.432h4v-5.107l25-4.371v4.479h4v-5.154l26-4.457v4.611h4v-5.287l24.82-4.234
		C195.396,322.504,220.939,296.688,220.939,265.002z M108.939,265.002c0-29.125,23.182-52.924,52.061-53.951v107.902
		C132.121,317.926,108.939,294.127,108.939,265.002z M165,318.949V211.055c28.822,1.088,51.939,24.863,51.939,53.947
		S193.822,317.861,165,318.949z"/>
</g>
<g>
	<g>
		<path fill="#FFFFFF" d="M745,34v4c-36.439,0-72.083,10.293-108.968,31.467C564.003,110.818,521,183.914,521,265
			c0,81.082,43.003,154.178,115.032,195.531C672.917,481.707,708.561,492,745,492v4c-37.157,0-73.452-10.467-110.96-32
			c-34.812-19.986-64.007-48.35-84.427-82.021C528.277,346.795,517,306.344,517,265c0-41.346,11.277-81.797,32.613-116.98
			c20.421-33.674,49.615-62.035,84.427-82.021C671.548,44.467,707.843,34,745,34z"/>
	</g>
	<path fill="#FFFFFF" d="M728.307,273.5c2.703,0,4.693-1.273,6.693-3.244v12.246c0,1.104,0.896,2,2,2s2-0.896,2-2v-35
		c0-1.105-0.896-2-2-2s-2,0.895-2,2v12.244c-2-1.973-3.99-3.244-6.693-3.244c-4.688,0-8.5,3.812-8.5,8.5
		C719.807,269.688,723.619,273.5,728.307,273.5z M728.279,258.502c3.584,0,6.499,2.916,6.499,6.5c0,3.582-2.915,6.498-6.499,6.498
		s-6.5-2.916-6.5-6.498C721.779,261.418,724.695,258.502,728.279,258.502z"/>
	<path fill="#FFFFFF" d="M524.061,265.002c0,31.693,25.556,57.516,57.142,57.979L606,327.205v5.295h4v-4.623l26,4.453v5.17h4v-4.496
		l25,4.367v6.129h4v-5.455l26,4.447v6.74l10,1.186v-6.34l40,6.902v-4.047l-149.403-25.543c25.472-6.115,44.464-29.068,44.464-56.389
		c0-27.324-18.997-50.279-44.473-56.391L745,183.045v-4.064l-40,6.912v-5.848l-10,1.188v6.25l-26,4.453V186.5h-4v6.109l-25,4.373
		V191.5h-4v6.156l-26,4.459V196.5h-4v6.289l-24.82,4.234C549.604,207.498,524.061,233.316,524.061,265.002z M636.061,265.002
		c0,29.125-23.182,52.924-52.061,53.951V211.051C612.879,212.078,636.061,235.877,636.061,265.002z M580,211.055v107.895
		c-28.822-1.088-51.939-24.863-51.939-53.947S551.178,212.143,580,211.055z"/>
</g>
</svg>
