<?xml version="1.0" encoding="utf-8"?>
<!-- Generator: Adobe Illustrator 18.1.0, SVG Export Plug-In . SVG Version: 6.00 Build 0)  -->
<svg version="1.1" id="Layer_1" xmlns="http://www.w3.org/2000/svg" xmlns:xlink="http://www.w3.org/1999/xlink" x="0px" y="0px"
	 viewBox="0 0 1080 645" enable-background="new 0 0 1080 645" xml:space="preserve">
<g>
	<polygon fill="#D1B98B" points="1,644.2 1,0.2 1081,0.2 1081,644.2 	"/>
</g>
<g>
	<path fill="none" stroke="#FFFFFF" stroke-width="4" stroke-miterlimit="10" d="M1.1,586.5h102.2c0,0,220.7-26.5,220.7-264.5
		C324,85,103.3,57.9,103.3,57.9H1.1"/>
	<circle fill="none" stroke="#FFFFFF" stroke-width="4" stroke-miterlimit="10" cx="248" cy="323.7" r="76"/>
	<polyline fill="none" stroke="#FFFFFF" stroke-width="4" stroke-miterlimit="10" points="1.9,399.7 246.2,399.7 246.2,247.7 
		1.9,247.7 	"/>
	<line fill="none" stroke="#FFFFFF" stroke-width="4" stroke-miterlimit="10" x1="54.6" y1="285.6" x2="54.6" y2="361.7"/>
	<g>
		<g>
			<path fill="#FFFFFF" d="M71.3,317.8c3.3,0,5.9,2.7,5.9,5.9s-2.7,5.9-5.9,5.9s-5.9-2.7-5.9-5.9S68,317.8,71.3,317.8 M71.3,313.8
				c-5.5,0-9.9,4.4-9.9,9.9c0,5.5,4.4,9.9,9.9,9.9s9.9-4.4,9.9-9.9C81.2,318.2,76.8,313.8,71.3,313.8L71.3,313.8z"/>
		</g>
	</g>
</g>
<g>
	<path fill="none" stroke="#FFFFFF" stroke-width="4" stroke-miterlimit="10" d="M1081,57.9H978.8c0,0-220.7,26.5-220.7,264.5
		c0,237,220.7,264.1,220.7,264.1H1081"/>
	<circle fill="none" stroke="#FFFFFF" stroke-width="4" stroke-miterlimit="10" cx="834.1" cy="320.7" r="76"/>
	<polyline fill="none" stroke="#FFFFFF" stroke-width="4" stroke-miterlimit="10" points="1080.3,244.7 835.9,244.7 835.9,396.8 
		1080.3,396.8 	"/>
	<line fill="none" stroke="#FFFFFF" stroke-width="4" stroke-miterlimit="10" x1="1027.5" y1="358.8" x2="1027.5" y2="282.8"/>
	<g>
		<g>
			<path fill="#FFFFFF" d="M1010.8,314.8c3.3,0,5.9,2.7,5.9,5.9s-2.7,5.9-5.9,5.9s-5.9-2.7-5.9-5.9S1007.6,314.8,1010.8,314.8
				 M1010.8,310.8c-5.5,0-9.9,4.4-9.9,9.9c0,5.5,4.4,9.9,9.9,9.9s9.9-4.4,9.9-9.9C1020.8,315.3,1016.3,310.8,1010.8,310.8
				L1010.8,310.8z"/>
		</g>
	</g>
</g>
<g>
	<line fill="none" stroke="#FFFFFF" stroke-width="4" stroke-miterlimit="10" x1="541" y1="-0.3" x2="541" y2="246.7"/>
	<line fill="none" stroke="#FFFFFF" stroke-width="4" stroke-miterlimit="10" x1="541" y1="398.7" x2="541" y2="643.7"/>
	<circle fill="none" stroke="#FFFFFF" stroke-width="4" stroke-miterlimit="10" cx="541" cy="321.7" r="76"/>
	<g>
		<path fill="#FFFFFF" d="M551,321.3l10.7-12.6h10.2l-13.7,16.1l13.8,19.4h-9.5l-10.5-13.5l-1.1,1.1v12.4h-7.7v-58.6h7.7V321.3z"/>
		<rect x="514.5" y="312.4" fill="#FFFFFF" width="7.6" height="32.2"/>
		<rect x="528.9" y="298.1" fill="#FFFFFF" width="7.6" height="46.5"/>
	</g>
</g>
</svg>
