<?xml version="1.0" encoding="utf-8"?>
<!-- Generator: Adobe Illustrator 15.0.2, SVG Export Plug-In . SVG Version: 6.00 Build 0)  -->
<!DOCTYPE svg PUBLIC "-//W3C//DTD SVG 1.1//EN" "http://www.w3.org/Graphics/SVG/1.1/DTD/svg11.dtd">
<svg version="1.1" id="HS_x5F_NCAA" xmlns="http://www.w3.org/2000/svg" xmlns:xlink="http://www.w3.org/1999/xlink" x="0px"
	 y="0px" width="745px" height="530px" viewBox="0 0 745 530" enable-background="new 0 0 745 530" xml:space="preserve">
<g>
	<g>
		<rect fill="#D3BF94" width="745" height="530"/>
		<g>
			<path fill="#FFFFFF" d="M8,245.5c-1.105,0-2,0.896-2,2v35c0,1.105,0.895,2,2,2c1.107,0,2-0.895,2-2v-11.893
				c2,1.77,3.664,2.893,6.207,2.893c4.693,0,8.424-3.812,8.424-8.5s-3.688-8.5-8.381-8.5c-2.541,0-4.25,1.123-6.25,2.893V247.5
				C10,246.396,9.107,245.5,8,245.5z M16.207,258.5c3.59,0,6.422,2.916,6.422,6.5s-2.789,6.5-6.379,6.5
				c-3.148,0-5.25-2.244-6.25-5.215v-2.572C11,260.744,13.059,258.5,16.207,258.5z"/>
			<path fill="#FFFFFF" d="M213.865,261.324c-0.508-31.986-7.627-64.328-20.721-93.773c-13.51-30.383-32.824-56.996-56.24-76.963
				C100.781,59.783,53.092,43.5,0,43.5v4.004c52.09,0,98.922,15.951,134.311,46.129c41.098,35.047,68.32,90.008,74.355,147.488
				C199.771,222.23,181,208.91,159,208.059V208h-19v-5h-4v5h-26v-5h-5v5H80v-5h-4v5H46v-5H36v5H0v4h135.662
				c-21.115,8-36.09,28.973-36.09,53s14.975,45,36.092,53H0v4h36v5h10v-5h30v5h4v-5h25v5h5v-5h26v5h4v-5h19v-0.057
				c22-0.852,40.678-14.174,49.574-33.064c-6.039,57.48-33.213,112.443-74.311,147.492C98.877,466.547,52.09,482.496,0,482.496
				v4.004c53.092,0,100.783-16.281,136.906-47.084c23.416-19.969,42.807-46.584,56.316-76.965
				c13.092-29.447,20.18-61.787,20.689-93.773c0.08-1.219,0.088-2.441,0.088-3.678S213.945,262.541,213.865,261.324z M155,317.955
				c-28-0.949-51.293-24.332-51.293-52.955c0-28.625,23.293-52.006,51.293-52.955V317.955z M209.777,268.432
				C208.021,295.322,186,316.814,159,317.943V212.057c27,1.131,49.039,22.621,50.795,49.51c0.018,1.145,0.084,2.289,0.084,3.434
				S209.795,267.289,209.777,268.432z"/>
		</g>
		<g>
			<path fill="#FFFFFF" d="M735,247.5v11.893c-2-1.77-3.684-2.893-6.225-2.893c-4.693,0-8.418,3.812-8.418,8.5s3.703,8.5,8.396,8.5
				c2.543,0,4.246-1.123,6.246-2.893V282.5c0,1.105,0.893,2,2,2c1.105,0,2-0.895,2-2v-35c0-1.104-0.895-2-2-2
				C735.893,245.5,735,246.396,735,247.5z M735,263.713v2.572c-1,2.971-3.076,5.215-6.225,5.215c-3.59,0-6.416-2.916-6.416-6.5
				s2.805-6.5,6.395-6.5C731.902,258.5,734,260.744,735,263.713z"/>
			<path fill="#FFFFFF" d="M531,265c0,1.236,0.025,2.459,0.105,3.678c0.51,31.986,7.629,64.326,20.723,93.773
				c13.51,30.381,32.842,56.996,56.258,76.965C644.209,470.219,692,486.5,745,486.5v-4.004c-52,0-98.818-15.949-134.205-46.125
				c-41.098-35.049-68.398-90.012-74.438-147.492C545.254,307.77,564,321.092,586,321.943V322h19v5h4v-5h26v5h5v-5h25v5h4v-5h30v5
				h10v-5h36v-4H609.32c21.117-8,36.092-28.973,36.092-53s-14.975-45-36.09-53H745v-4h-36v-5h-10v5h-30v-5h-4v5h-25v-5h-5v5h-26v-5
				h-4v5h-19v0.059c-22,0.852-40.713,14.172-49.607,33.062c6.035-57.48,33.131-112.441,74.229-147.488
				C646.01,63.455,693,47.504,745,47.504V43.5c-53,0-100.789,16.283-136.912,47.088c-23.416,19.967-42.799,46.58-56.311,76.963
				c-13.092,29.445-20.182,61.787-20.689,93.773C531.008,262.541,531,263.764,531,265z M590,212.045
				c28,0.949,51.295,24.33,51.295,52.955c0,28.623-23.295,52.006-51.295,52.955V212.045z M535.236,265
				c0-1.145-0.057-2.289-0.039-3.434c1.756-26.889,23.803-48.379,50.803-49.51v105.887c-27-1.129-49.029-22.621-50.785-49.512
				C535.197,267.289,535.236,266.145,535.236,265z"/>
		</g>
	</g>
	<g>
		<g>
			<rect x="370.951" fill="#FFFFFF" width="4" height="530"/>
		</g>
		<g>
			<rect x="267.342" y="510" fill="#FFFFFF" width="4" height="20"/>
		</g>
		<g>
			<rect x="473.66" y="510" fill="#FFFFFF" width="4" height="20"/>
		</g>
		<g>
			<rect x="267.451" fill="#FFFFFF" width="4" height="20"/>
		</g>
		<g>
			<rect x="473.66" fill="#FFFFFF" width="4" height="20"/>
		</g>
	</g>
</g>
</svg>
