<?xml version="1.0" encoding="utf-8"?>
<!-- Generator: Adobe Illustrator 18.0.0, SVG Export Plug-In . SVG Version: 6.00 Build 0)  -->
<!DOCTYPE svg PUBLIC "-//W3C//DTD SVG 1.1//EN" "http://www.w3.org/Graphics/SVG/1.1/DTD/svg11.dtd">
<svg version="1.1" id="Layer_1" xmlns="http://www.w3.org/2000/svg" xmlns:xlink="http://www.w3.org/1999/xlink" x="0px" y="0px"
	 viewBox="0 0 446.5 108.7" enable-background="new 0 0 446.5 108.7" xml:space="preserve">
<path fill="#08425B" d="M97.1,55.1L109.4,72h-7.3L90.7,55.8h-1.1V72h-6V32.4h7c5.2,0,9,1,11.4,3c2.6,2.2,3.9,5.1,3.9,8.7
	c0,2.8-0.8,5.2-2.4,7.2C101.9,53.3,99.7,54.6,97.1,55.1z M89.6,50.6h1.9c5.7,0,8.5-2.2,8.5-6.5c0-4.1-2.8-6.1-8.3-6.1h-2.1V50.6z"/>
<path fill="#08425B" d="M123.5,52c0-5.6,2-10.4,6.1-14.4c4.1-4,9-6,14.7-6c5.7,0,10.5,2,14.5,6.1c4.1,4,6.1,8.9,6.1,14.6
	c0,5.7-2,10.5-6.1,14.5c-4.1,4-9,6-14.8,6c-5.1,0-9.7-1.8-13.8-5.3C125.8,63.5,123.5,58.4,123.5,52z M129.6,52.1
	c0,4.4,1.5,8,4.4,10.8c2.9,2.8,6.3,4.2,10.2,4.2c4.2,0,7.7-1.4,10.5-4.3c2.9-2.9,4.3-6.5,4.3-10.6c0-4.2-1.4-7.8-4.2-10.6
	c-2.8-2.9-6.3-4.3-10.4-4.3c-4.1,0-7.6,1.4-10.5,4.3C131,44.4,129.6,47.9,129.6,52.1z"/>
<path fill="#08425B" d="M206,38.2l-4.9,2.9c-0.9-1.6-1.8-2.6-2.6-3.1c-0.9-0.5-2-0.8-3.3-0.8c-1.7,0-3,0.5-4.1,1.4
	c-1.1,0.9-1.6,2.1-1.6,3.5c0,1.9,1.4,3.5,4.3,4.7l4,1.6c3.2,1.3,5.6,2.9,7.1,4.8c1.5,1.9,2.2,4.2,2.2,6.9c0,3.7-1.2,6.7-3.7,9.1
	c-2.5,2.4-5.5,3.6-9.1,3.6c-3.4,0-6.3-1-8.5-3.1c-2.2-2-3.6-4.9-4.1-8.6l6.1-1.3c0.3,2.3,0.8,3.9,1.4,4.8c1.2,1.7,3,2.6,5.4,2.6
	c1.9,0,3.4-0.6,4.7-1.9c1.2-1.2,1.9-2.8,1.9-4.8c0-0.8-0.1-1.5-0.3-2.1c-0.2-0.6-0.5-1.2-1-1.8c-0.5-0.5-1-1-1.8-1.5
	c-0.7-0.5-1.6-0.9-2.6-1.3l-3.8-1.6c-5.4-2.3-8.1-5.7-8.1-10.1c0-3,1.1-5.5,3.4-7.5c2.3-2,5.1-3,8.5-3
	C199.9,31.6,203.5,33.8,206,38.2z"/>
<path fill="#08425B" d="M247.8,38.2l-4.9,2.9c-0.9-1.6-1.8-2.6-2.6-3.1c-0.9-0.5-2-0.8-3.3-0.8c-1.7,0-3,0.5-4.1,1.4
	c-1.1,0.9-1.6,2.1-1.6,3.5c0,1.9,1.4,3.5,4.3,4.7l4,1.6c3.2,1.3,5.6,2.9,7.1,4.8c1.5,1.9,2.2,4.2,2.2,6.9c0,3.7-1.2,6.7-3.6,9.1
	c-2.5,2.4-5.5,3.6-9.1,3.6c-3.4,0-6.3-1-8.5-3.1c-2.2-2-3.6-4.9-4.1-8.6l6.1-1.3c0.3,2.3,0.8,3.9,1.4,4.8c1.2,1.7,3,2.6,5.4,2.6
	c1.9,0,3.4-0.6,4.7-1.9c1.2-1.2,1.9-2.8,1.9-4.8c0-0.8-0.1-1.5-0.3-2.1c-0.2-0.6-0.5-1.2-1-1.8c-0.5-0.5-1-1-1.8-1.5
	c-0.7-0.5-1.6-0.9-2.6-1.3l-3.8-1.6c-5.4-2.3-8.1-5.7-8.1-10.1c0-3,1.1-5.5,3.4-7.5c2.3-2,5.1-3,8.5-3
	C241.6,31.6,245.2,33.8,247.8,38.2z"/>
<path fill="#08425B" d="M323.5,32.4l10.8,27l0.4,0l10.9-27h6.6l-16.5,39.6l-2.5,0l-16.1-39.6H323.5z"/>
<path fill="#08425B" d="M390,38h-15.9v9.5h15.4v5.6h-15.4v13.3H390V72h-21.9V32.4H390V38z"/>
<path fill="#08425B" d="M422.4,55.1L434.7,72h-7.3L416,55.8h-1.1V72h-6V32.4h7c5.2,0,9,1,11.4,3c2.6,2.2,3.9,5.1,3.9,8.7
	c0,2.8-0.8,5.2-2.4,7.2C427.1,53.3,425,54.6,422.4,55.1z M414.9,50.6h1.9c5.7,0,8.5-2.2,8.5-6.5c0-4.1-2.8-6.1-8.3-6.1h-2.1V50.6z"
	/>
<polygon fill="#EE4823" points="291.4,52.2 279.2,45.4 279.2,58.9 291.4,52.2 "/>
<g>
	<path fill="#08425B" d="M295.9,43.5c1.7,2.5,2.6,5.4,2.6,8.7c0,4.2-1.4,7.7-4.3,10.6c-2.9,2.9-6.4,4.3-10.5,4.3
		c-3.8,0-7.2-1.4-10.2-4.2c-2.9-2.8-4.4-6.4-4.4-10.8c0-4.2,1.4-7.7,4.3-10.5c2.8-2.9,6.3-4.3,10.5-4.3c0.9,0,1.7,0.1,2.5,0.2
		l2.8-5.2c-1.7-0.4-3.4-0.7-5.2-0.7c-5.7,0-10.6,2-14.7,6c-4.1,4-6.1,8.8-6.1,14.4c0,6.4,2.2,11.5,6.7,15.4
		c4.1,3.5,8.7,5.3,13.8,5.3c5.8,0,10.7-2,14.8-6c4.1-4,6.1-8.8,6.1-14.5c0-5.5-1.9-10.2-5.7-14.2L295.9,43.5z"/>
</g>
<polygon fill="#08425B" points="51.1,50.3 69,32.4 60.2,32.4 44.7,47.9 44.7,7 38.6,7 38.7,72 44.7,72 44.7,55.6 45.9,54.4 60.2,72 
	69,72 "/>
<rect x="13.3" y="35.9" fill="#F29422" width="5.9" height="36"/>
<rect x="26" y="19.9" fill="#EE4823" width="5.9" height="52.1"/>
<path fill="#08425B" d="M97.1,55.1L109.4,72h-7.3L90.7,55.8h-1.1V72h-6V32.4h7c5.2,0,9,1,11.4,3c2.6,2.2,3.9,5.1,3.9,8.7
	c0,2.8-0.8,5.2-2.4,7.2C101.9,53.3,99.7,54.6,97.1,55.1z M89.6,50.6h1.9c5.7,0,8.5-2.2,8.5-6.5c0-4.1-2.8-6.1-8.3-6.1h-2.1V50.6z"/>
<path fill="#08425B" d="M123.5,52c0-5.6,2-10.4,6.1-14.4c4.1-4,9-6,14.7-6c5.7,0,10.5,2,14.5,6.1c4.1,4,6.1,8.9,6.1,14.6
	c0,5.7-2,10.5-6.1,14.5c-4.1,4-9,6-14.8,6c-5.1,0-9.7-1.8-13.8-5.3C125.8,63.5,123.5,58.4,123.5,52z M129.6,52.1
	c0,4.4,1.5,8,4.4,10.8c2.9,2.8,6.3,4.2,10.2,4.2c4.2,0,7.7-1.4,10.5-4.3c2.9-2.9,4.3-6.5,4.3-10.6c0-4.2-1.4-7.8-4.2-10.6
	c-2.8-2.9-6.3-4.3-10.4-4.3c-4.1,0-7.6,1.4-10.5,4.3C131,44.4,129.6,47.9,129.6,52.1z"/>
<path fill="#08425B" d="M206,38.2l-4.9,2.9c-0.9-1.6-1.8-2.6-2.6-3.1c-0.9-0.5-2-0.8-3.3-0.8c-1.7,0-3,0.5-4.1,1.4
	c-1.1,0.9-1.6,2.1-1.6,3.5c0,1.9,1.4,3.5,4.3,4.7l4,1.6c3.2,1.3,5.6,2.9,7.1,4.8c1.5,1.9,2.2,4.2,2.2,6.9c0,3.7-1.2,6.7-3.7,9.1
	c-2.5,2.4-5.5,3.6-9.1,3.6c-3.4,0-6.3-1-8.5-3.1c-2.2-2-3.6-4.9-4.1-8.6l6.1-1.3c0.3,2.3,0.8,3.9,1.4,4.8c1.2,1.7,3,2.6,5.4,2.6
	c1.9,0,3.4-0.6,4.7-1.9c1.2-1.2,1.9-2.8,1.9-4.8c0-0.8-0.1-1.5-0.3-2.1c-0.2-0.6-0.5-1.2-1-1.8c-0.5-0.5-1-1-1.8-1.5
	c-0.7-0.5-1.6-0.9-2.6-1.3l-3.8-1.6c-5.4-2.3-8.1-5.7-8.1-10.1c0-3,1.1-5.5,3.4-7.5c2.3-2,5.1-3,8.5-3
	C199.9,31.6,203.5,33.8,206,38.2z"/>
<path fill="#08425B" d="M247.8,38.2l-4.9,2.9c-0.9-1.6-1.8-2.6-2.6-3.1c-0.9-0.5-2-0.8-3.3-0.8c-1.7,0-3,0.5-4.1,1.4
	c-1.1,0.9-1.6,2.1-1.6,3.5c0,1.9,1.4,3.5,4.3,4.7l4,1.6c3.2,1.3,5.6,2.9,7.1,4.8c1.5,1.9,2.2,4.2,2.2,6.9c0,3.7-1.2,6.7-3.6,9.1
	c-2.5,2.4-5.5,3.6-9.1,3.6c-3.4,0-6.3-1-8.5-3.1c-2.2-2-3.6-4.9-4.1-8.6l6.1-1.3c0.3,2.3,0.8,3.9,1.4,4.8c1.2,1.7,3,2.6,5.4,2.6
	c1.9,0,3.4-0.6,4.7-1.9c1.2-1.2,1.9-2.8,1.9-4.8c0-0.8-0.1-1.5-0.3-2.1c-0.2-0.6-0.5-1.2-1-1.8c-0.5-0.5-1-1-1.8-1.5
	c-0.7-0.5-1.6-0.9-2.6-1.3l-3.8-1.6c-5.4-2.3-8.1-5.7-8.1-10.1c0-3,1.1-5.5,3.4-7.5c2.3-2,5.1-3,8.5-3
	C241.6,31.6,245.2,33.8,247.8,38.2z"/>
<path fill="#08425B" d="M323.5,32.4l10.8,27l0.4,0l10.9-27h6.6l-16.5,39.6l-2.5,0l-16.1-39.6H323.5z"/>
<path fill="#08425B" d="M390,38h-15.9v9.5h15.4v5.6h-15.4v13.3H390V72h-21.9V32.4H390V38z"/>
<path fill="#08425B" d="M422.4,55.1L434.7,72h-7.3L416,55.8h-1.1V72h-6V32.4h7c5.2,0,9,1,11.4,3c2.6,2.2,3.9,5.1,3.9,8.7
	c0,2.8-0.8,5.2-2.4,7.2C427.1,53.3,425,54.6,422.4,55.1z M414.9,50.6h1.9c5.7,0,8.5-2.2,8.5-6.5c0-4.1-2.8-6.1-8.3-6.1h-2.1V50.6z"
	/>
<polygon fill="#EE4823" points="291.4,52.2 279.2,45.4 279.2,58.9 291.4,52.2 "/>
<g>
	<path fill="#08425B" d="M295.9,43.5c1.7,2.5,2.6,5.4,2.6,8.7c0,4.2-1.4,7.7-4.3,10.6c-2.9,2.9-6.4,4.3-10.5,4.3
		c-3.8,0-7.2-1.4-10.2-4.2c-2.9-2.8-4.4-6.4-4.4-10.8c0-4.2,1.4-7.7,4.3-10.5c2.8-2.9,6.3-4.3,10.5-4.3c0.9,0,1.7,0.1,2.5,0.2
		l2.8-5.2c-1.7-0.4-3.4-0.7-5.2-0.7c-5.7,0-10.6,2-14.7,6c-4.1,4-6.1,8.8-6.1,14.4c0,6.4,2.2,11.5,6.7,15.4
		c4.1,3.5,8.7,5.3,13.8,5.3c5.8,0,10.7-2,14.8-6c4.1-4,6.1-8.8,6.1-14.5c0-5.5-1.9-10.2-5.7-14.2L295.9,43.5z"/>
</g>
<polygon fill="#08425B" points="51.1,50.3 69,32.4 60.2,32.4 44.7,47.9 44.7,7 38.6,7 38.7,72 44.7,72 44.7,55.6 45.9,54.4 60.2,72 
	69,72 "/>
<rect x="13.3" y="35.9" fill="#F29422" width="5.9" height="36"/>
<rect x="26" y="19.9" fill="#EE4823" width="5.9" height="52.1"/>
<g>
	<path fill="#EE4823" d="M47.6,90.7h4.2c-0.1,1.2-0.7,2.2-1.7,3.1c-1,0.9-2.1,1.3-3.4,1.3c-1.5,0-2.9-0.6-4.1-1.7
		c-1.4-1.2-2-2.8-2-4.7c0-1.8,0.6-3.4,1.8-4.6c1.2-1.2,2.7-1.9,4.5-1.9c2,0,3.7,0.9,5.1,2.8l1.8-1.8c-1.1-1.2-2.2-2.1-3.3-2.6
		c-1.2-0.5-2.4-0.8-3.7-0.8c-2.5,0-4.6,0.9-6.3,2.6c-1.7,1.7-2.6,3.8-2.6,6.3c0,2.4,0.8,4.5,2.5,6.2c1.7,1.7,3.7,2.6,6.1,2.6
		c2.4,0,4.5-0.9,6-2.7c0.7-0.8,1.2-1.6,1.5-2.6c0.3-1,0.5-2.1,0.5-3.4v-0.6h-7V90.7z M61.8,97.2h9.4v-2.4h-6.8v-5.7H71v-2.4h-6.6
		v-4.1h6.8v-2.4h-9.4V97.2z M77.1,82.6h3.9v14.6h2.6V82.6h3.9v-2.4H77.1V82.6z M109.4,87l-3.9-6.8h-3l5.6,9.7v7.4h2.6v-7.4l5.6-9.7
		h-3L109.4,87z M129.3,79.9c-2.5,0-4.6,0.9-6.3,2.6c-1.8,1.7-2.6,3.8-2.6,6.2c0,2.7,1,4.9,2.9,6.6c1.7,1.5,3.7,2.3,5.9,2.3
		c2.5,0,4.6-0.9,6.4-2.6c1.7-1.7,2.6-3.8,2.6-6.2c0-2.4-0.9-4.5-2.6-6.3C133.8,80.7,131.7,79.9,129.3,79.9z M133.7,93.2
		c-1.2,1.2-2.7,1.9-4.5,1.9c-1.6,0-3.1-0.6-4.4-1.8c-1.3-1.2-1.9-2.8-1.9-4.6c0-1.8,0.6-3.3,1.8-4.5c1.2-1.2,2.7-1.9,4.5-1.9
		c1.8,0,3.3,0.6,4.5,1.9c1.2,1.2,1.8,2.7,1.8,4.6C135.5,90.5,134.9,92,133.7,93.2z M155.3,90.4c0,1.5-0.2,2.6-0.7,3.2
		c-0.7,1-1.7,1.5-3,1.5c-1.3,0-2.3-0.5-3-1.5c-0.5-0.7-0.7-1.7-0.7-3.2V80.2h-2.6v11c0,1.8,0.6,3.3,1.7,4.4c1.2,1.3,2.8,1.9,4.6,1.9
		c1.8,0,3.4-0.6,4.6-1.9c1.1-1.2,1.7-2.6,1.7-4.4v-11h-2.6V90.4z M174.4,88.3c0.7-0.9,1-1.9,1-3.1c0-1.5-0.6-2.8-1.7-3.7
		c-1-0.8-2.6-1.3-4.9-1.3h-3v17h2.6v-7h0.5l4.9,7h3.1l-5.3-7.3C172.8,89.7,173.7,89.1,174.4,88.3z M168.5,88v-5.4h0.9
		c2.4,0,3.6,0.9,3.6,2.6c0,1.9-1.2,2.8-3.6,2.8H168.5z M203.1,90.7h4.2c-0.1,1.2-0.7,2.2-1.7,3.1c-1,0.9-2.1,1.3-3.4,1.3
		c-1.5,0-2.9-0.6-4.1-1.7c-1.4-1.2-2-2.8-2-4.7c0-1.8,0.6-3.4,1.8-4.6c1.2-1.2,2.7-1.9,4.5-1.9c2,0,3.7,0.9,5.1,2.8l1.8-1.8
		c-1.1-1.2-2.2-2.1-3.3-2.6c-1.2-0.5-2.4-0.8-3.7-0.8c-2.5,0-4.6,0.9-6.3,2.6c-1.7,1.7-2.6,3.8-2.6,6.3c0,2.4,0.8,4.5,2.5,6.2
		c1.7,1.7,3.7,2.6,6.1,2.6c2.4,0,4.5-0.9,6-2.7c0.7-0.8,1.2-1.6,1.5-2.6c0.3-1,0.5-2.1,0.5-3.4v-0.6h-7V90.7z M214.7,97.2h2.8
		l1.9-4.1h7.3l1.8,4.1h2.8l-8.1-18.1L214.7,97.2z M220.4,90.7l2.6-5.8l2.5,5.8H220.4z M246.6,92.1l-5.8-13.2l-3.6,18.3h2.7l1.8-10.3
		l4.9,11.1l5-11.1l1.6,10.3h2.6l-3.2-18.3L246.6,92.1z M263.1,97.2h9.4v-2.4h-6.8v-5.7h6.6v-2.4h-6.6v-4.1h6.8v-2.4h-9.4V97.2z
		 M297.9,88c0.9-0.8,1.4-1.9,1.4-3.1c0-0.7-0.1-1.3-0.4-2c-0.3-0.6-0.7-1.2-1.1-1.6c-0.5-0.4-1-0.7-1.7-0.9
		c-0.7-0.2-1.6-0.3-2.7-0.3h-2.6v17h3.9c1.2,0,2.1-0.1,2.9-0.3c0.7-0.2,1.3-0.6,1.9-1.2c0.9-0.9,1.4-2,1.4-3.4c0-1-0.3-1.9-0.8-2.7
		C299.5,88.9,298.8,88.3,297.9,88z M293.3,82.5h0.9c0.9,0,1.5,0.2,2,0.6c0.5,0.4,0.7,1,0.7,1.8c0,0.8-0.2,1.4-0.7,1.9
		c-0.4,0.4-1.1,0.6-2.1,0.6h-0.8V82.5z M297.5,94.1c-0.5,0.5-1.4,0.7-2.6,0.7h-1.6v-5.1h1.3c1.4,0,2.3,0.2,2.9,0.7
		c0.6,0.5,0.8,1.1,0.8,1.9C298.3,93,298,93.6,297.5,94.1z M316.5,88.3c0.7-0.9,1-1.9,1-3.1c0-1.5-0.6-2.8-1.7-3.7
		c-1-0.8-2.6-1.3-4.9-1.3h-3v17h2.6v-7h0.5l4.9,7h3.1l-5.3-7.3C314.9,89.7,315.9,89.1,316.5,88.3z M310.6,88v-5.4h0.9
		c2.4,0,3.6,0.9,3.6,2.6c0,1.9-1.2,2.8-3.6,2.8H310.6z M324.5,97.2h2.8l1.9-4.1h7.3l1.8,4.1h2.8l-8.1-18.1L324.5,97.2z M330.3,90.7
		l2.6-5.8l2.5,5.8H330.3z M347.2,97.2h2.6v-17h-2.6V97.2z M370.3,92l-12.4-13v18.2h2.6V85.3l12.4,13V80.2h-2.6V92z M400,79.9
		c-2.5,0-4.6,0.9-6.3,2.6c-1.8,1.7-2.6,3.8-2.6,6.2c0,2.7,1,4.9,2.9,6.6c1.7,1.5,3.7,2.3,5.9,2.3c2.5,0,4.6-0.9,6.4-2.6
		c1.7-1.7,2.6-3.8,2.6-6.2c0-2.4-0.9-4.5-2.6-6.3C404.5,80.7,402.4,79.9,400,79.9z M404.4,93.2c-1.2,1.2-2.7,1.9-4.5,1.9
		c-1.6,0-3.1-0.6-4.4-1.8c-1.3-1.2-1.9-2.8-1.9-4.6c0-1.8,0.6-3.3,1.8-4.5c1.2-1.2,2.7-1.9,4.5-1.9c1.8,0,3.3,0.6,4.5,1.9
		c1.2,1.2,1.8,2.7,1.8,4.6C406.2,90.5,405.6,92,404.4,93.2z M428.5,80.2V92L416,79v18.2h2.6V85.3l12.4,13V80.2H428.5z"/>
</g>
</svg>
