<?xml version="1.0" encoding="utf-8"?>
<!-- Generator: Adobe Illustrator 18.0.0, SVG Export Plug-In . SVG Version: 6.00 Build 0)  -->
<!DOCTYPE svg PUBLIC "-//W3C//DTD SVG 1.1//EN" "http://www.w3.org/Graphics/SVG/1.1/DTD/svg11.dtd">
<svg version="1.1" id="Layer_1" xmlns="http://www.w3.org/2000/svg" xmlns:xlink="http://www.w3.org/1999/xlink" x="0px" y="0px"
	 viewBox="0 0 446.5 80.3" enable-background="new 0 0 446.5 80.3" xml:space="preserve">
<path fill="#08425B" d="M96.3,55.4l12.3,16.9h-7.3L90,56.1h-1.1v16.2h-6V32.6h7c5.2,0,9,1,11.4,3c2.6,2.2,3.9,5.1,3.9,8.7
	c0,2.8-0.8,5.2-2.4,7.2C101.1,53.5,99,54.8,96.3,55.4z M88.9,50.8h1.9c5.7,0,8.5-2.2,8.5-6.5c0-4.1-2.8-6.1-8.3-6.1h-2.1V50.8z"/>
<path fill="#08425B" d="M122.8,52.3c0-5.6,2-10.4,6.1-14.4c4.1-4,9-6,14.7-6c5.7,0,10.5,2,14.5,6.1c4.1,4,6.1,8.9,6.1,14.6
	c0,5.7-2,10.5-6.1,14.5c-4.1,4-9,6-14.8,6c-5.1,0-9.7-1.8-13.8-5.3C125,63.8,122.8,58.6,122.8,52.3z M128.8,52.3
	c0,4.4,1.5,8,4.4,10.8c2.9,2.8,6.3,4.2,10.2,4.2c4.2,0,7.7-1.4,10.5-4.3c2.9-2.9,4.3-6.5,4.3-10.6c0-4.2-1.4-7.8-4.2-10.6
	c-2.8-2.9-6.3-4.3-10.4-4.3c-4.1,0-7.6,1.4-10.5,4.3C130.2,44.7,128.8,48.2,128.8,52.3z"/>
<path fill="#08425B" d="M205.3,38.5l-4.9,2.9c-0.9-1.6-1.8-2.6-2.6-3.1c-0.9-0.5-2-0.8-3.3-0.8c-1.7,0-3,0.5-4.1,1.4
	c-1.1,0.9-1.6,2.1-1.6,3.5c0,1.9,1.4,3.5,4.3,4.7l4,1.6c3.2,1.3,5.6,2.9,7.1,4.8c1.5,1.9,2.2,4.2,2.2,6.9c0,3.7-1.2,6.7-3.7,9.1
	c-2.5,2.4-5.5,3.6-9.1,3.6c-3.4,0-6.3-1-8.5-3.1c-2.2-2-3.6-4.9-4.1-8.6l6.1-1.3c0.3,2.3,0.8,3.9,1.4,4.8c1.2,1.7,3,2.6,5.4,2.6
	c1.9,0,3.4-0.6,4.7-1.9c1.2-1.2,1.9-2.8,1.9-4.8c0-0.8-0.1-1.5-0.3-2.1c-0.2-0.6-0.5-1.2-1-1.8c-0.5-0.5-1-1-1.8-1.5
	c-0.7-0.5-1.6-0.9-2.6-1.3l-3.8-1.6c-5.4-2.3-8.1-5.7-8.1-10.1c0-3,1.1-5.5,3.4-7.5c2.3-2,5.1-3,8.5-3
	C199.1,31.8,202.7,34.1,205.3,38.5z"/>
<path fill="#08425B" d="M247,38.5l-4.9,2.9c-0.9-1.6-1.8-2.6-2.6-3.1c-0.9-0.5-2-0.8-3.3-0.8c-1.7,0-3,0.5-4.1,1.4
	c-1.1,0.9-1.6,2.1-1.6,3.5c0,1.9,1.4,3.5,4.3,4.7l4,1.6c3.2,1.3,5.6,2.9,7.1,4.8c1.5,1.9,2.2,4.2,2.2,6.9c0,3.7-1.2,6.7-3.6,9.1
	c-2.5,2.4-5.5,3.6-9.1,3.6c-3.4,0-6.3-1-8.5-3.1c-2.2-2-3.6-4.9-4.1-8.6l6.1-1.3c0.3,2.3,0.8,3.9,1.4,4.8c1.2,1.7,3,2.6,5.4,2.6
	c1.9,0,3.4-0.6,4.7-1.9s1.9-2.8,1.9-4.8c0-0.8-0.1-1.5-0.3-2.1c-0.2-0.6-0.5-1.2-1-1.8c-0.5-0.5-1-1-1.8-1.5
	c-0.7-0.5-1.6-0.9-2.6-1.3l-3.8-1.6c-5.4-2.3-8.1-5.7-8.1-10.1c0-3,1.1-5.5,3.4-7.5c2.3-2,5.1-3,8.5-3
	C240.9,31.8,244.4,34.1,247,38.5z"/>
<path fill="#08425B" d="M322.7,32.6l10.8,27l0.4,0l10.9-27h6.6l-16.5,39.6l-2.5,0l-16.1-39.6H322.7z"/>
<path fill="#08425B" d="M389.2,38.2h-15.9v9.5h15.4v5.6h-15.4v13.3h15.9v5.6h-21.9V32.6h21.9V38.2z"/>
<path fill="#08425B" d="M421.6,55.4l12.3,16.9h-7.3l-11.3-16.2h-1.1v16.2h-6V32.6h7c5.2,0,9,1,11.4,3c2.6,2.2,3.9,5.1,3.9,8.7
	c0,2.8-0.8,5.2-2.4,7.2C426.4,53.5,424.2,54.8,421.6,55.4z M414.1,50.8h1.9c5.7,0,8.5-2.2,8.5-6.5c0-4.1-2.8-6.1-8.3-6.1h-2.1V50.8z
	"/>
<polygon fill="#EE4823" points="290.6,52.4 278.4,45.7 278.4,59.2 290.7,52.4 "/>
<g>
	<path fill="#08425B" d="M295.2,43.8c1.7,2.5,2.6,5.4,2.6,8.7c0,4.2-1.4,7.7-4.3,10.6c-2.9,2.9-6.4,4.3-10.5,4.3
		c-3.8,0-7.2-1.4-10.2-4.2c-2.9-2.8-4.4-6.4-4.4-10.8c0-4.2,1.4-7.7,4.3-10.5c2.8-2.9,6.3-4.3,10.5-4.3c0.9,0,1.7,0.1,2.5,0.2
		l2.8-5.2c-1.7-0.4-3.4-0.7-5.2-0.7c-5.7,0-10.6,2-14.7,6c-4.1,4-6.1,8.8-6.1,14.4c0,6.4,2.2,11.5,6.7,15.4
		c4.1,3.5,8.7,5.3,13.8,5.3c5.8,0,10.7-2,14.8-6c4.1-4,6.1-8.8,6.1-14.5c0-5.5-1.9-10.2-5.7-14.2L295.2,43.8z"/>
</g>
<polygon fill="#08425B" points="50.3,50.6 68.2,32.6 59.4,32.6 43.9,48.2 43.9,7.3 37.9,7.3 37.9,72.3 43.9,72.3 43.9,55.9 
	45.2,54.6 59.5,72.3 68.2,72.3 "/>
<rect x="12.6" y="36.2" fill="#F29422" width="5.9" height="36"/>
<rect x="25.3" y="20.1" fill="#EE4823" width="5.9" height="52.1"/>
</svg>
