<?xml version="1.0" encoding="utf-8"?>
<!-- Generator: Adobe Illustrator 18.0.0, SVG Export Plug-In . SVG Version: 6.00 Build 0)  -->
<!DOCTYPE svg PUBLIC "-//W3C//DTD SVG 1.1//EN" "http://www.w3.org/Graphics/SVG/1.1/DTD/svg11.dtd">
<svg version="1.1" id="Isolation_Mode" xmlns="http://www.w3.org/2000/svg" xmlns:xlink="http://www.w3.org/1999/xlink" x="0px"
	 y="0px" viewBox="0 0 1200 1200" enable-background="new 0 0 1200 1200" xml:space="preserve">
<g>
	<g>
		<path fill="#737474" d="M100.1,595.8c0,0.8,0.8,1.7,0.8,2.5c5.9,0,11.8,0,18.5-1.7c-1.7-5.9-2.5-10.9-3.4-17.7
			c8.4-2.5,16-5,25.2-8.4c5.9,6.7,10.1,11.8,14.3,16.8c4.2-0.8,7.6-1.7,11.8-2.5c-5.9-6.7-10.1-11.8-16.8-19.3
			c10.1-3.4,17.7-5,26.9-7.6c-0.8,8.4-0.8,16.8-0.8,25.2c5.9-0.8,11.8-1.7,17.7-1.7c0-7.6,0-14.3,0.8-21.9
			c7.6,8.4,12.6,15.1,19.3,23.5c6.7,0.8,14.3,2.5,21.9,5c11.8-2.5,20.2-5,33.6-7.6c10.1,11.8,16,18.5,25.2,28.6l13.5,5
			c10.1-1.7,16.8-3.4,26.1-5c5-3.4,9.3-8.4,13.5-15.1c-7.6-8.4-13.5-15.1-21-23.5c10.9-1.7,19.3-3.4,31.1-5c0.8-8.4,0.8-15.1-0.8-21
			c-5.9-6.7-10.1-12.6-16.8-20.2l-13.5-5c-13.5,1.7-22.7,3.4-37.8,5.9c-8.4-10.9-14.3-17.7-21-27.8c-7.6-2.5-14.3-5.9-20.2-10.1
			c-10.9,1.7-18.5,3.4-30.3,5c4.2-5.9,8.4-11.8,13.5-17.7c-5-4.2-9.3-8.4-12.6-12.6c-5.9,6.7-10.9,12.6-16,20.2
			c-5.9-7.6-10.1-14.3-16-22.7c10.1-1.7,16.8-3.4,25.2-4.2c-2.5-3.4-5-6.7-7.6-10.1c-6.7,0.8-13.5,2.5-21.9,4.2
			c-5.9-8.4-10.1-15.1-14.3-22.7c5-4.2,9.3-7.6,14.3-10.9c-4.2-5-8.4-9.3-13.5-12.6c-0.8,0.8-1.7,0.8-2.5,1.7
			c-3.4,0.8-7.6,1.7-11.8,1.7c-3.4-5-5.9-10.1-8.4-14.3c-4.2-0.8-8.4-0.8-12.6-0.8c2.5,5,5.9,10.1,9.3,16
			c-13.5,2.5-22.7,4.2-37.8,7.6c-2.5-4.2-4.2-7.6-5.9-10.1c-2.5,1.7-5.9,4.2-8.4,6.7c1.7,2.5,3.4,5,5,8.4
			c-6.7,1.7-12.6,2.5-17.7,4.2c-4.2,4.2-7.6,9.3-10.9,13.5c10.9-2.5,19.3-5,32-7.6c7.6,11.8,12.6,20.2,19.3,30.3
			c-0.8,1.7-1.7,2.5-2.5,4.2c-11.8,2.5-20.2,5-33.6,8.4c-7.6-11.8-13.5-19.3-19.3-29.4c-2.5,3.4-4.2,6.7-5.9,10.9
			c5,7.6,9.3,14.3,16,23.5c-10.1,2.5-18.5,5-26.9,7.6c-0.8,4.2-1.7,7.6-2.5,11.8c14.3-1.7,23.5-4.2,37-7.6
			c7.6,10.9,12.6,18.5,20.2,27.8c0,1.7-0.8,3.4-0.8,4.2c-11.8,3.4-21,6.7-34.5,10.9c-8.4-10.1-13.5-17.7-20.2-26.1
			c-0.8,5.9-0.8,11.8-0.8,17.7c3.4,4.2,6.7,9.3,10.9,14.3c-3.4,0.8-6.7,2.5-9.3,3.4c0.8,3.4,1.7,6.7,2.5,10.9
			c3.4-1.7,7.6-2.5,11.8-4.2c9.3,11.8,15.1,19.3,23.5,30.3c-6.7,2.5-11.8,4.2-17.7,6.7c3.4,3.4,6.7,5.9,10.1,7.6
			c4.2-1.7,9.3-3.4,15.1-5.9C95,590.7,97.5,593.3,100.1,595.8z M113.5,479.7c-1.7,4.2-3.4,7.6-5,11.8c-1.7,4.2-2.5,8.4-4.2,12.6
			c-4.2-5.9-8.4-11.8-13.5-18.5C99.2,483.1,106,481.4,113.5,479.7z M132.9,478.9c7.6,11.8,13.5,18.5,21,29.4
			c-12.6,3.4-21,5-34.5,9.3c1.7-6.7,3.4-12.6,5.9-19.3C127,491.5,130.3,485.6,132.9,478.9z M183.3,531.9
			c-4.2-5.9-8.4-10.9-13.5-17.7c8.4-1.7,14.3-3.4,21-5c-1.7,3.4-3.4,6.7-4.2,10.9C185.8,524.3,184.2,527.7,183.3,531.9z
			 M203.5,526.8c2.5-5.9,5-11.8,7.6-16.8c8.4,10.9,13.5,18.5,21,27.8c-11.8,2.5-21,4.2-34.5,7.6
			C200.1,538.6,201.8,532.7,203.5,526.8z M127.8,452.8c-5.9-7.6-10.1-15.1-16-24.4c15.1-3.4,25.2-5,40.4-8.4c0,0,0,0.8,0.8,0.8
			C143.8,430.1,135.4,441.1,127.8,452.8z M143,462.9c5.9-9.3,12.6-17.7,20.2-25.2c4.2,5.9,7.6,11.8,11.8,19.3
			C162.3,458.7,153.9,460.4,143,462.9z M198.5,494.9c-0.8,0.8-0.8,1.7-1.7,2.5c-11.8,2.5-20.2,4.2-32.8,6.7
			c-8.4-11.8-14.3-19.3-21.9-31.1c13.5-3.4,22.7-5,36.2-7.6C185.8,478.1,190.9,484.8,198.5,494.9z M277.5,527.7
			c-11.8,1.7-20.2,3.4-33.6,5.9c-8.4-10.1-13.5-17.7-21.9-27.8c12.6-2.5,21-3.4,34.5-5.9C264.1,510.9,269.9,518.4,277.5,527.7z
			 M322.1,562.2c-8.4-10.1-13.5-16-21.9-26.1c11.8-1.7,20.2-3.4,32.8-5c8.4,10.1,13.5,16.8,21,25.2
			C343.1,558.8,334.7,560.5,322.1,562.2z M310.3,565.5c-12.6,2.5-21,3.4-36.2,6.7c-9.3-10.9-15.1-17.7-24.4-28.6
			c13.5-2.5,22.7-4.2,37-6.7C296,548.7,301.9,555.4,310.3,565.5z M284.2,581.5c11.8-2.5,20.2-4.2,32.8-5.9c8.4,10.1,13.5,16,21,24.4
			c-11.8,1.7-20.2,3.4-32.8,5.9C297.7,596.6,291.8,589.9,284.2,581.5z M204.3,554.6c12.6-3.4,21.9-5,34.5-7.6
			c8.4,10.9,14.3,17.7,21.9,26.1c-11.8,2.5-20.2,4.2-34.5,7.6C217.8,570.6,211.9,564.7,204.3,554.6z M145.5,556.3
			c-9.3-10.9-14.3-17.7-23.5-29.4c14.3-4.2,22.7-5.9,37-9.3c8.4,10.9,13.5,17.7,21,26.9c0,0.8,0,1.7-0.8,2.5
			C167.3,550.4,158.9,552.9,145.5,556.3z M114.4,568.9c-0.8-10.1,0-21,0.8-32c7.6,9.3,12.6,16,20.2,25.2
			C127.8,563.8,121.1,566.4,114.4,568.9z M95.9,574.8c-10.1-11.8-16-19.3-26.1-32c10.9-3.4,18.5-5.9,27.8-9.3
			c-1.7,13.5-2.5,27.8-0.8,40.4C96.7,574.8,95.9,574.8,95.9,574.8z"/>
		<path fill="#737474" d="M1001.5,798.5l-304.4-111L645.8,706l343.9,125.3c9.3,3.4,19.3-1.7,22.7-10.1
			C1015,811.9,1010.8,801.8,1001.5,798.5z"/>
	</g>
	<g>
		<path fill="#737474" d="M1109.2,587.4c5.9,1.7,10.9,4.2,15.1,5.9c3.4-1.7,6.7-5,10.1-7.6c-5.9-2.5-10.9-4.2-17.7-6.7
			c8.4-10.9,14.3-17.7,23.5-30.3c4.2,1.7,7.6,2.5,11.8,4.2c0.8-3.4,1.7-6.7,2.5-10.9c-2.5-0.8-5.9-1.7-9.3-3.4
			c4.2-5.9,7.6-10.1,10.9-14.3c0-5.9,0-11.8-0.8-17.7c-6.7,9.3-11.8,16-20.2,26.1c-13.5-4.2-22.7-7.6-34.5-10.9
			c0-1.7-0.8-3.4-0.8-4.2c7.6-9.3,12.6-16.8,20.2-27.8c13.5,3.4,22.7,6.7,34.5,10.1c-0.8-4.2-0.8-8.4-2.5-11.8
			c-9.3-2.5-16.8-5-26.9-7.6c5.9-8.4,10.9-16,16-23.5c-1.7-3.4-4.2-6.7-5.9-10.9c-6.7,10.1-11.8,18.5-19.3,29.4
			c-13.5-3.4-21.9-5.9-33.6-8.4c-0.8-1.7-1.7-2.5-2.5-4.2c6.7-10.1,11.8-18.5,19.3-30.3c12.6,2.5,21.9,5,32,7.6
			c-3.4-5-6.7-9.3-10.9-13.5c-5-0.8-10.9-2.5-17.7-4.2c1.7-3.4,3.4-5.9,5-8.4c-2.5-2.5-5.9-4.2-8.4-6.7c-1.7,3.4-4.2,6.7-5.9,10.1
			c-15.1-3.4-24.4-5-37.8-7.6c3.4-5.9,5.9-10.9,9.3-16c-4.2,0-8.4,0-12.6,0.8c-2.5,4.2-5,8.4-8.4,14.3c-4.2-0.8-8.4-1.7-11.8-1.7
			c-0.8-0.8-1.7-0.8-2.5-1.7c-5,3.4-9.3,8.4-13.5,12.6c5,3.4,9.3,6.7,14.3,10.9c-4.2,7.6-8.4,14.3-14.3,22.7
			c-8.4-1.7-15.1-2.5-21.9-4.2c-2.5,3.4-5,6.7-7.6,10.1c8.4,1.7,16,2.5,25.2,4.2c-5.9,9.3-10.1,15.1-16,22.7
			c-5-7.6-10.1-13.5-16-20.2c-4.2,4.2-8.4,8.4-12.6,12.6c5,5,9.3,10.9,13.5,17.7c-10.9-1.7-19.3-3.4-30.3-5
			c-5.9,3.4-12.6,6.7-20.2,10.1c-7.6,10.1-12.6,16.8-21,27.8c-15.1-2.5-24.4-3.4-37.8-5.9l-13.5,5c-5.9,7.6-10.9,13.5-16.8,20.2
			c-1.7,5.9-1.7,12.6-0.8,21c11.8,1.7,19.3,2.5,31.1,5c-7.6,8.4-12.6,14.3-21,23.5c4.2,6.7,9.3,11.8,13.5,15.1
			c8.4,1.7,16,2.5,26.1,5l13.5-5c9.3-10.1,15.1-16.8,25.2-28.6c13.5,2.5,21.9,4.2,33.6,7.6c7.6-2.5,14.3-4.2,21.9-5
			c6.7-8.4,12.6-14.3,19.3-23.5c0.8,7.6,0.8,15.1,0.8,21.9c5.9,0,11.8,0.8,17.7,1.7c0-8.4,0-16.8-0.8-25.2
			c9.3,2.5,16.8,4.2,26.9,7.6c-6.7,7.6-10.9,13.5-16.8,19.3c4.2,0.8,8.4,1.7,11.8,2.5c4.2-5,8.4-10.1,14.3-16.8
			c10.1,3.4,16.8,5,25.2,8.4c-0.8,6.7-2.5,11.8-3.4,17.7c6.7,0.8,12.6,1.7,18.5,1.7c0-0.8,0.8-1.7,0.8-2.5
			C1104.1,593.3,1106.7,590.7,1109.2,587.4z M1110.9,485.6c-5,7.6-9.3,12.6-13.5,18.5c-0.8-4.2-2.5-8.4-4.2-12.6
			c-1.7-4.2-3.4-8.4-5-11.8C1095.7,481.4,1102.5,483.1,1110.9,485.6z M1076.4,498.2c2.5,6.7,4.2,13.5,5.9,19.3
			c-13.5-3.4-21.9-5.9-34.5-9.3c7.6-10.1,12.6-17.7,21-29.4C1071.3,485.6,1074.7,491.5,1076.4,498.2z M1015,520.1
			c-1.7-3.4-2.5-7.6-4.2-10.9c6.7,1.7,13.5,2.5,21,5c-5,6.7-9.3,11.8-13.5,17.7C1017.5,527.7,1015.8,524.3,1015,520.1z
			 M1003.2,544.5c-13.5-3.4-21.9-5-34.5-7.6c7.6-9.3,13.5-16.8,21-27.8c2.5,5.9,5,10.9,7.6,16.8
			C999.9,532.7,1001.5,538.6,1003.2,544.5z M1048.6,420.9c0,0,0-0.8,0.8-0.8c15.1,2.5,24.4,5,40.4,8.4
			c-5.9,10.1-10.1,16.8-15.1,24.4C1066.3,441.1,1057.9,430.1,1048.6,420.9z M1027.6,456.2c4.2-6.7,8.4-12.6,11.8-19.3
			c6.7,7.6,13.5,16,20.2,25.2C1047.8,460.4,1039.4,458.7,1027.6,456.2z M1023.4,466.3c13.5,2.5,22.7,4.2,36.2,7.6
			c-8.4,11.8-13.5,19.3-21.9,31.1c-12.6-3.4-21.9-5-32.8-6.7c-0.8-0.8-0.8-1.7-1.7-2.5C1010.8,484.8,1015.8,478.1,1023.4,466.3z
			 M945.2,499.9c13.5,1.7,21.9,3.4,34.5,5.9c-7.6,10.9-13.5,17.7-21.9,27.8c-13.5-2.5-21.9-4.2-33.6-5.9
			C931.7,518.4,937.6,510.9,945.2,499.9z M847.7,557.1c7.6-9.3,12.6-15.1,21-25.2c12.6,1.7,21,2.5,32.8,5
			c-7.6,9.3-13.5,16-21.9,26.1C867,560.5,858.6,558.8,847.7,557.1z M914.9,536.9c14.3,2.5,23.5,4.2,37,6.7
			c-8.4,10.9-14.3,17.7-24.4,28.6c-15.1-3.4-23.5-4.2-36.2-6.7C899.8,555.4,905.7,548.7,914.9,536.9z M895.6,605.9
			c-12.6-2.5-21-4.2-32.8-5.9c7.6-8.4,13.5-15.1,21-24.4c12.6,2.5,21,3.4,32.8,5.9C909.9,589.9,904,596.6,895.6,605.9z M975.5,580.7
			c-13.5-3.4-22.7-5-34.5-7.6c7.6-9.3,13.5-15.1,21.9-26.1c13.5,2.5,21.9,4.2,34.5,7.6C989.8,564.7,983.9,570.6,975.5,580.7z
			 M1021.7,547c0-0.8,0-1.7-0.8-2.5c7.6-9.3,12.6-16,21-26.9c14.3,3.4,22.7,5.9,37,9.3c-8.4,10.9-14.3,18.5-23.5,29.4
			C1042.7,552.9,1034.3,550.4,1021.7,547z M1065.5,562.2c7.6-9.3,12.6-16,20.2-25.2c1.7,10.9,1.7,21.9,0.8,32
			C1080.6,566.4,1073.9,563.8,1065.5,562.2z M1105,574.8c0.8-13.5,0.8-26.9-0.8-40.4c9.3,2.5,16.8,5,27.8,9.3
			c-10.1,12.6-16,20.2-26.1,32C1105.8,574.8,1105,574.8,1105,574.8z"/>
		<path fill="#737474" d="M1180.7,460.4c-23.5-63.1-87.5-116-145.5-95c-27.8,10.1-44.6,32-60.5,53c-16.8,21.9-34.5,43.7-63.9,54.7
			l-70.6,25.2c-14.3,5-28.6,21-32.8,43.7c-10.1,18.5-23.5,37-34.5,47.9l-171.5,62.2l-171.5-62.2c-10.9-10.9-24.4-29.4-34.5-47.9
			c-5-22.7-18.5-38.7-32.8-43.7L291.8,473c-29.4-10.9-47.1-32.8-63.9-54.7c-16.8-21-33.6-42.9-60.5-53c-58.9-21-122.8,32-146.3,95
			C-1.7,523.5,12.6,605,71.5,626.1c27.8,10.1,54.7,4.2,80.7-1.7c26.9-5.9,54.7-11.8,84.1-0.8l70.6,25.2c10.9,4.2,25.2,3.4,39.5-3.4
			c8.4,10.1,12.6,19.3,12.6,19.3c1.7,4.2,7.6,6.7,11.8,4.2c2.5-0.8,4.2-2.5,5-5s0.8-4.2,0-6.7c0-0.8-5-10.1-13.5-21
			c1.7-0.8,3.4-1.7,5-1.7c21.9,15.1,33.6,39.5,33.6,39.5c1.7,4.2,7.6,6.7,11.8,4.2c2.5-0.8,4.2-2.5,5-5s0.8-4.2,0-6.7
			c-0.8-0.8-10.1-21.9-29.4-38.7c10.9-2.5,21-5,29.4-5l132,47.9L200.1,798.5c-9.3,3.4-13.5,13.5-10.1,22.7s13.5,13.5,22.7,10.1
			l571.8-208.5c8.4,0.8,18.5,2.5,29.4,5c-19.3,16.8-28.6,37.8-29.4,38.7c-0.8,2.5-0.8,5,0,6.7c0.8,2.5,2.5,4.2,5,5
			c4.2,1.7,10.1,0,11.8-4.2c0,0,11.8-24.4,33.6-39.5c1.7,0.8,3.4,1.7,5,1.7c-8.4,10.9-13.5,21-13.5,21c-0.8,2.5-0.8,5,0,6.7
			c0.8,2.5,2.5,4.2,5,5c4.2,1.7,10.1,0,11.8-4.2c0,0,4.2-9.3,12.6-19.3c14.3,6.7,28.6,7.6,39.5,3.4l70.6-25.2
			c29.4-10.9,57.2-5,84.1,0.8c26.1,5.9,53,10.9,80.7,1.7C1188.2,605,1203.4,523.5,1180.7,460.4z M366.6,585.7
			c-13.5,37-42,43.7-51.3,40.4l-70.6-25.2c-36.2-13.5-69-5.9-97.5,0c-24.4,5-46.3,10.1-67.3,2.5C37,588.2,26.1,520.1,44.6,469.7
			s70.6-95,113.5-79.9c21,7.6,34.5,24.4,49.6,44.6c18.5,23.5,38.7,49.6,74.8,63.1l70.6,25.2C363.3,525.2,380.1,548.7,366.6,585.7z
			 M388.5,600c0.8-1.7,1.7-3.4,2.5-5.9c0.8-1.7,1.7-4.2,1.7-5.9c2.5,3.4,5,5.9,7.6,9.3C396.1,598.3,391.9,599.2,388.5,600z
			 M802.2,597.5c2.5-2.5,5-5.9,7.6-9.3c0.8,1.7,0.8,4.2,1.7,5.9c0.8,1.7,1.7,4.2,2.5,5.9C809.8,599.2,805.6,598.3,802.2,597.5z
			 M1121.8,602.5c-21,7.6-42,3.4-67.3-2.5c-28.6-5.9-61.4-13.5-97.5,0l-70.6,25.2c-9.3,3.4-37.8-3.4-51.3-40.4
			c-13.5-37,4.2-60.5,13.5-63.9l70.6-25.2c36.2-13.5,57.2-39.5,74.8-63.1c16-20.2,29.4-37,49.6-44.6c42.9-15.1,95,29.4,113.5,79.9
			C1175.6,519.3,1163.8,587.4,1121.8,602.5z"/>
	</g>
</g>
<path fill="#737474" d="M613.9,857.3c-21,7.6-43.7-4.2-51.3-25.2c-7.6-21,4.2-43.7,25.2-51.3c21-7.6,43.7,4.2,51.3,25.2
	C646.7,826.2,634.9,849.8,613.9,857.3z"/>
</svg>
