<?xml version="1.0" encoding="utf-8"?>
<!-- Generator: Adobe Illustrator 13.0.2, SVG Export Plug-In . SVG Version: 6.00 Build 14948)  -->
<!DOCTYPE svg PUBLIC "-//W3C//DTD SVG 1.1//EN" "http://www.w3.org/Graphics/SVG/1.1/DTD/svg11.dtd">
<svg version="1.1" id="men_x27_s_lacrosse" xmlns="http://www.w3.org/2000/svg" xmlns:xlink="http://www.w3.org/1999/xlink" x="0px"
	 y="0px" width="970px" height="530px" viewBox="0 0 970 530" enable-background="new 0 0 970 530" xml:space="preserve">
<g>
	<rect fill="#92B286" width="970" height="530"/>
	<g>
		<rect x="321.357" fill="#FFFFFF" width="2" height="530"/>
		<rect x="645.672" fill="#FFFFFF" width="2" height="530"/>
		<rect x="484" fill="#FFFFFF" width="2" height="530"/>
	</g>
	<g>
		<path fill="none" stroke="#FFFFFF" stroke-width="2" d="M160.944,265.799c0,15.217-12.317,27.547-27.513,27.547
			c-15.189,0-27.508-12.33-27.508-27.547s12.318-27.551,27.508-27.551C148.627,238.248,160.944,250.582,160.944,265.799z"/>
		
			<line fill="none" stroke="#FFFFFF" stroke-width="2" stroke-linecap="round" x1="133.725" y1="251.959" x2="133.725" y2="279.635"/>
		<path fill="none" stroke="#FFFFFF" stroke-width="2" d="M864.724,265.799c0,15.217-12.317,27.547-27.513,27.547
			c-15.189,0-27.508-12.33-27.508-27.547s12.318-27.551,27.508-27.551C852.406,238.248,864.724,250.582,864.724,265.799z"/>
		
			<line fill="none" stroke="#FFFFFF" stroke-width="2" stroke-linecap="round" x1="837.505" y1="251.959" x2="837.505" y2="279.635"/>
		<g>
			
				<line fill="none" stroke="#FFFFFF" stroke-width="2" stroke-linecap="round" x1="496.264" y1="254.516" x2="473.734" y2="277.078"/>
			
				<line fill="none" stroke="#FFFFFF" stroke-width="2" stroke-linecap="round" x1="473.734" y1="254.516" x2="496.264" y2="277.078"/>
		</g>
		<line fill="none" stroke="#FFFFFF" stroke-width="2" x1="0.468" y1="88.986" x2="322.396" y2="88.986"/>
		<line fill="none" stroke="#FFFFFF" stroke-width="2" x1="0.468" y1="441.013" x2="322.396" y2="441.013"/>
		<line fill="none" stroke="#FFFFFF" stroke-width="2" x1="647.707" y1="88.986" x2="969.637" y2="88.986"/>
		<line fill="none" stroke="#FFFFFF" stroke-width="2" x1="647.707" y1="441.013" x2="969.637" y2="441.013"/>
		<line fill="none" stroke="#FFFFFF" stroke-width="2" x1="397.123" y1="88.986" x2="572.875" y2="88.986"/>
		<line fill="none" stroke="#FFFFFF" stroke-width="2" x1="397.123" y1="441.013" x2="572.875" y2="441.013"/>
	</g>
</g>
</svg>
