<?xml version="1.0" encoding="utf-8"?>
<!-- Generator: Adobe Illustrator 15.0.2, SVG Export Plug-In . SVG Version: 6.00 Build 0)  -->
<!DOCTYPE svg PUBLIC "-//W3C//DTD SVG 1.1//EN" "http://www.w3.org/Graphics/SVG/1.1/DTD/svg11.dtd">
<svg version="1.1" id="NBA_1_" xmlns="http://www.w3.org/2000/svg" xmlns:xlink="http://www.w3.org/1999/xlink" x="0px" y="0px"
	 width="745px" height="530px" viewBox="0 0 745 530" enable-background="new 0 0 745 530" xml:space="preserve">
<g>
	<rect x="0.023" y="0.016" fill="#D3BF94" width="745" height="530"/>
	<g>
		<g>
			<path fill="#FFFFFF" d="M142.341,500.516H0.023v-4h141.018c3.213-2.383,20.922-15.843,36.942-34.559
				c18.586-21.71,40.054-62.09,51.046-96.015c10.09-31.143,14.994-63.817,14.994-99.894c0-0.282-0.009-0.591-0.018-0.896
				l-0.002-0.192c0.011-0.388,0.02-0.695,0.02-0.976c0-36.079-4.904-68.755-14.994-99.896c-10.99-33.92-32.458-74.301-51.046-96.015
				c-16.035-18.733-33.732-32.179-36.942-34.559H0.023v-4h142.317l0.522,0.376c0.2,0.144,20.224,14.629,38.159,35.581
				c18.889,22.066,40.679,63.022,51.812,97.384c10.221,31.545,15.189,64.624,15.189,101.128c0,0.315-0.01,0.662-0.02,1.006
				c0.01,0.395,0.02,0.741,0.02,1.059c0,36.501-4.969,69.58-15.189,101.126c-11.135,34.366-32.925,75.321-51.812,97.384
				c-17.936,20.952-37.959,35.438-38.159,35.581L142.341,500.516z"/>
		</g>
		<path fill="#FFFFFF" d="M160,206.938V195.5h-23v-4h-4v4h-25v-4h-4v4H80v-4h-4v4H47v-4H37v4H0v4h156v7.455
			c-31,1.232-54.661,26.295-54.661,56.939c0,30.646,23.661,55.709,54.661,56.941v7.664H0v4h37v6h10v-6h29v5h4v-5h24v5h4v-5h25v5h4
			v-5h23v-11.646c30-0.885,55.339-26.086,55.339-56.959C215.339,233.023,190,207.822,160,206.938z M156,316.836
			c-28-1.229-50.661-24.5-50.661-52.941c0-28.439,22.661-51.711,50.661-52.939V316.836z M160,316.854V210.938
			c28,0.883,51.339,24.291,51.339,52.957C211.339,292.562,188,315.971,160,316.854z"/>
		<path fill="#FFFFFF" d="M11.947,256.35c-2.703,0-4.947,1.271-6.947,3.244v-12.078c0-1.105-0.896-2-2-2s-2,0.895-2,2v35
			c0,1.104,0.896,2,2,2s2-0.896,2-2v-12.414c2,1.973,4.244,3.246,6.947,3.246c4.686,0,8.5-3.814,8.5-8.5
			S16.633,256.35,11.947,256.35z M12.228,271.348c-3.584,0-6.499-2.916-6.499-6.5s2.915-6.498,6.499-6.498s6.5,2.914,6.5,6.498
			S15.812,271.348,12.228,271.348z"/>
	</g>
	<g>
		<path fill="#FFFFFF" d="M745.023,500.516H602.706l-0.522-0.376c-0.2-0.144-20.224-14.629-38.159-35.581
			c-18.887-22.062-40.677-63.018-51.812-97.384c-10.221-31.546-15.189-64.625-15.189-101.126c0-0.317,0.01-0.664,0.02-1.009
			c-0.01-0.394-0.02-0.74-0.02-1.056c0-36.504,4.969-69.583,15.189-101.128c11.133-34.361,32.923-75.317,51.812-97.384
			c17.936-20.952,37.959-35.438,38.159-35.581l0.522-0.376h142.317v4H604.006c-3.213,2.383-20.922,15.843-36.942,34.559
			c-18.588,21.714-40.056,62.095-51.046,96.015c-10.09,31.141-14.994,63.816-14.994,99.896c0,0.28,0.009,0.588,0.018,0.895
			l0.002,0.192c-0.011,0.387-0.02,0.695-0.02,0.978c0,36.076,4.904,68.751,14.994,99.894c10.992,33.925,32.46,74.305,51.046,96.015
			c16.035,18.733,33.732,32.179,36.942,34.559h141.018V500.516z"/>
	</g>
	<path fill="#FFFFFF" d="M529.661,263.895c0,30.873,24.339,56.074,55.339,56.959V332.5h23v5h4v-5h25v5h4v-5h24v5h4v-5h29v6h10v-6h37
		v-4H589v-7.664c30-1.232,54.661-26.295,54.661-56.941c0-30.645-24.661-55.707-54.661-56.939V199.5h156v-4h-37v-4h-10v4h-29v-4h-4v4
		h-24v-4h-4v4h-25v-4h-4v4h-23v11.438C554,207.822,529.661,233.023,529.661,263.895z M589,210.955
		c28,1.229,50.661,24.5,50.661,52.939c0,28.441-22.661,51.713-50.661,52.941V210.955z M533.661,263.895
		c0-28.666,22.339-52.074,51.339-52.957v105.916C556,315.971,533.661,292.562,533.661,263.895z"/>
	<path fill="#FFFFFF" d="M719.609,264.848c0,4.686,3.774,8.5,8.46,8.5c2.703,0,4.931-1.273,6.931-3.246v12.414c0,1.104,0.896,2,2,2
		s2-0.896,2-2v-35c0-1.105-0.896-2-2-2s-2,0.895-2,2v12.078c-2-1.973-4.228-3.244-6.931-3.244
		C723.384,256.35,719.609,260.162,719.609,264.848z M721.307,264.848c0-3.584,2.916-6.498,6.5-6.498s6.499,2.914,6.499,6.498
		s-2.915,6.5-6.499,6.5S721.307,268.432,721.307,264.848z"/>
</g>
<g>
	<g>
		<rect x="370.191" y="0.016" fill="#FFFFFF" width="4" height="530"/>
	</g>
	<g>
		<rect x="266.599" y="513.016" fill="#FFFFFF" width="4" height="17"/>
	</g>
	<g>
		<rect x="474.324" y="513.016" fill="#FFFFFF" width="4" height="17"/>
	</g>
	<g>
		<rect x="266.599" y="0.016" fill="#FFFFFF" width="4" height="17"/>
	</g>
	<g>
		<rect x="474.324" y="0.016" fill="#FFFFFF" width="4" height="17"/>
	</g>
</g>
</svg>
