<?xml version="1.0" encoding="utf-8"?>
<!-- Generator: Adobe Illustrator 18.1.1, SVG Export Plug-In . SVG Version: 6.00 Build 0)  -->
<!DOCTYPE svg PUBLIC "-//W3C//DTD SVG 1.1//EN" "http://www.w3.org/Graphics/SVG/1.1/DTD/svg11.dtd">
<svg version="1.1" id="Fullscreen_alt" xmlns="http://www.w3.org/2000/svg" xmlns:xlink="http://www.w3.org/1999/xlink" x="0px"
	 y="0px" viewBox="0 0 512 512" enable-background="new 0 0 512 512" xml:space="preserve">
<path display="none" d="M182.4,280.9L92,371.2L36,315.1v159.7h159.7L138.8,418l90.3-90.4L182.4,280.9z M311.8,38.5l56.9,56.9
	l-90.3,90.3l46.8,46.8l90.3-90.3l56.1,56.1V38.5H311.8z"/>
<g id="Pencil_1_x2C__Edit_1" display="none">
	<path display="inline" fill-rule="evenodd" clip-rule="evenodd" d="M460.6,69.7L441,50.1c-13.1-13.1-34.3-13.1-47.4,0L358.7,85
		l67,67l34.9-34.9C473.7,104.1,473.7,82.9,460.6,69.7z"/>
	
		<rect x="203.4" y="107.3" transform="matrix(-0.7071 -0.7071 0.7071 -0.7071 244.3553 621.0817)" display="inline" fill-rule="evenodd" clip-rule="evenodd" width="94.8" height="305.2"/>
	<path display="inline" fill-rule="evenodd" clip-rule="evenodd" d="M38.2,463.7c-3.2,8,0.8,12,8.8,8.8l96.2-38l-67-67L38.2,463.7z"
		/>
</g>
<path display="none" d="M465.3,194.8L316.5,46c-6.8-6.8-17.8-6.8-24.6,0s-6.8,17.8,0,24.6l61.9,61.9L42.4,444
	c-6.8,6.8-6.8,17.8,0,24.6c6.8,6.8,17.8,6.8,24.6,0l311.4-311.4l62.2,62.2c6.8,6.8,17.8,6.8,24.6,0S472.1,201.6,465.3,194.8z"/>
<path display="none" d="M347.1,309.5L468.7,66.4c3.3-6.7,2-14.8-3.3-20c-5.3-5.3-13.4-6.6-20-3.3L202.3,164.6
	c-7.2,3.6-11,11.7-9.1,19.5c1.9,7.8,8.9,13.4,16.9,13.4l79.6,0L43,444.2c-6.8,6.8-6.8,17.8,0,24.6s17.8,6.8,24.6,0l246.7-246.7
	l0,79.7c0,8.1,5.5,15.1,13.4,16.9c1.3,0.3,2.7,0.5,4,0.5C338.1,319.1,344.2,315.5,347.1,309.5z"/>
<path display="none" fill="#231F20" d="M37.4,253.8L412.5,374l3.4-3.4c35.1-35.1,52.9-72.8,52.9-112c0-66.5-51.1-112.7-53.3-114.6
	l-3.2-2.9L37.4,253.8z M453.2,258.7c0,33.7-15.1,66.5-45.1,97.6L89.9,254.3l318.3-95.7C418.8,169.4,453.2,208.2,453.2,258.7z"/>
<g display="none">
	<path display="inline" d="M253.8,40.5c-119.5,0-216.3,96.9-216.3,216.3s96.9,216.3,216.3,216.3s216.3-96.9,216.3-216.3
		S373.3,40.5,253.8,40.5z M253.8,420.8c-90.6,0-164-73.4-164-164s73.4-164,164-164s164,73.4,164,164S344.4,420.8,253.8,420.8z"/>
</g>
<text transform="matrix(1 0 0 1 37.0005 439.8259)" fill="#231F20" font-family="'FranklinGothicURW-Med'" font-size="555.6105">Tt</text>
</svg>
