<?xml version="1.0" encoding="utf-8"?>
<!-- Generator: Adobe Illustrator 13.0.2, SVG Export Plug-In . SVG Version: 6.00 Build 14948)  -->
<!DOCTYPE svg PUBLIC "-//W3C//DTD SVG 1.1//EN" "http://www.w3.org/Graphics/SVG/1.1/DTD/svg11.dtd">
<svg version="1.1" id="women_x27_s_lacrosse" xmlns="http://www.w3.org/2000/svg" xmlns:xlink="http://www.w3.org/1999/xlink"
	 x="0px" y="0px" width="970px" height="550px" viewBox="0 0 970 550" enable-background="new 0 0 970 550" xml:space="preserve">
<g>
	<rect fill="#92B286" width="970" height="550"/>
	<g>
		<rect x="321.826" fill="#FFFFFF" width="2" height="550"/>
		<rect x="646.141" fill="#FFFFFF" width="2" height="550"/>
	</g>
	<g>
		<ellipse fill="none" stroke="#FFFFFF" stroke-width="2" cx="485.65" cy="275" rx="58.904" ry="58.83"/>
		<g>
			<path fill="none" stroke="#FFFFFF" stroke-width="2" d="M860.859,168.566l1.172,212.861c0,0-0.091,0.52-0.143,0.516
				c-56.681-2.855-101.759-49.658-101.759-106.976c0-56.911,44.433-103.454,100.538-106.913
				C860.734,168.049,860.859,168.566,860.859,168.566z"/>
			<path fill="none" stroke="#FFFFFF" stroke-width="2" d="M827.113,220.523l34.453,27.854l0.126,47.976l-33.612,33.121
				c0,0-0.44-0.301-0.653-0.447c-17.21-11.957-28.473-31.852-28.473-54.371c0-22.232,10.979-41.906,27.817-53.911
				C826.881,220.668,827.113,220.523,827.113,220.523z"/>
			<ellipse fill="none" stroke="#FFFFFF" stroke-width="2" cx="867.136" cy="275" rx="24.054" ry="24.023"/>
			<polygon fill="none" stroke="#FFFFFF" stroke-width="2" points="861.477,259.834 861.477,290.164 876.105,274.602 			"/>
			<g>
				<line fill="none" stroke="#FFFFFF" stroke-width="2" x1="797.263" y1="249.282" x2="808.656" y2="253.739"/>
				<line fill="none" stroke="#FFFFFF" stroke-width="2" x1="812.31" y1="226.385" x2="821.035" y2="235.188"/>
				<line fill="none" stroke="#FFFFFF" stroke-width="2" x1="834.091" y1="211.736" x2="838.972" y2="223.113"/>
				<line fill="none" stroke="#FFFFFF" stroke-width="2" x1="797.263" y1="300.719" x2="808.656" y2="296.26"/>
				<line fill="none" stroke="#FFFFFF" stroke-width="2" x1="812.31" y1="323.613" x2="821.035" y2="314.812"/>
				<line fill="none" stroke="#FFFFFF" stroke-width="2" x1="834.091" y1="338.262" x2="838.972" y2="326.885"/>
				<line fill="none" stroke="#FFFFFF" stroke-width="2" x1="792.282" y1="274.999" x2="804.627" y2="275.004"/>
			</g>
		</g>
		<g>
			<path fill="none" stroke="#FFFFFF" stroke-width="2" d="M110.441,168.566l-1.17,212.861c0,0,0.09,0.52,0.141,0.516
				c56.681-2.855,101.758-49.658,101.758-106.976c0-56.911-44.432-103.454-100.539-106.913
				C110.566,168.049,110.441,168.566,110.441,168.566z"/>
			<path fill="none" stroke="#FFFFFF" stroke-width="2" d="M144.188,220.523l-34.453,27.854l-0.127,47.976l33.613,33.121
				c0,0,0.438-0.301,0.654-0.447c17.207-11.957,28.471-31.852,28.471-54.371c0-22.232-10.979-41.906-27.816-53.911
				C144.418,220.668,144.188,220.523,144.188,220.523z"/>
			<ellipse fill="none" stroke="#FFFFFF" stroke-width="2" cx="104.163" cy="275" rx="24.054" ry="24.023"/>
			<polygon fill="none" stroke="#FFFFFF" stroke-width="2" points="109.824,259.834 109.824,290.164 95.194,274.602 			"/>
			<g>
				<line fill="none" stroke="#FFFFFF" stroke-width="2" x1="174.037" y1="249.282" x2="162.645" y2="253.739"/>
				<line fill="none" stroke="#FFFFFF" stroke-width="2" x1="158.991" y1="226.385" x2="150.266" y2="235.188"/>
				<line fill="none" stroke="#FFFFFF" stroke-width="2" x1="137.209" y1="211.736" x2="132.328" y2="223.113"/>
				<line fill="none" stroke="#FFFFFF" stroke-width="2" x1="174.037" y1="300.719" x2="162.645" y2="296.26"/>
				<line fill="none" stroke="#FFFFFF" stroke-width="2" x1="158.991" y1="323.613" x2="150.266" y2="314.812"/>
				<line fill="none" stroke="#FFFFFF" stroke-width="2" x1="137.209" y1="338.262" x2="132.328" y2="326.885"/>
				<line fill="none" stroke="#FFFFFF" stroke-width="2" x1="179.019" y1="274.999" x2="166.672" y2="275.004"/>
			</g>
		</g>
		<line fill="none" stroke="#FFFFFF" stroke-width="2" x1="484.91" y1="250.125" x2="484.91" y2="299.877"/>
	</g>
</g>
</svg>
